<svg width="20" height="21" viewBox="0 0 20 21" fill="none" xmlns="http://www.w3.org/2000/svg">
<path d="M12.825 4.84169L14 7.19169C14.1584 7.51669 14.5834 7.82503 14.9417 7.89169L17.0667 8.24169C18.425 8.46669 18.7417 9.45003 17.7667 10.4334L16.1084 12.0917C15.8334 12.3667 15.675 12.9084 15.7667 13.3L16.2417 15.35C16.6167 16.9667 15.75 17.6 14.325 16.75L12.3334 15.5667C11.975 15.35 11.375 15.35 11.0167 15.5667L9.02503 16.75C7.60003 17.5917 6.73337 16.9667 7.10837 15.35L7.58337 13.3C7.65837 12.9 7.50003 12.3584 7.22503 12.0834L5.5667 10.425C4.5917 9.45003 4.90837 8.46669 6.2667 8.23336L8.3917 7.88336C8.75003 7.82503 9.17503 7.50836 9.33337 7.18336L10.5084 4.83336C11.15 3.56669 12.1834 3.56669 12.825 4.84169Z" fill="#FFEC70"/>
<path d="M6.6665 5.29163H1.6665C1.32484 5.29163 1.0415 5.00829 1.0415 4.66663C1.0415 4.32496 1.32484 4.04163 1.6665 4.04163H6.6665C7.00817 4.04163 7.2915 4.32496 7.2915 4.66663C7.2915 5.00829 7.00817 5.29163 6.6665 5.29163Z" fill="#FFEC70"/>
<path d="M4.1665 16.9584H1.6665C1.32484 16.9584 1.0415 16.675 1.0415 16.3334C1.0415 15.9917 1.32484 15.7084 1.6665 15.7084H4.1665C4.50817 15.7084 4.7915 15.9917 4.7915 16.3334C4.7915 16.675 4.50817 16.9584 4.1665 16.9584Z" fill="#FFEC70"/>
<path d="M2.49984 11.125H1.6665C1.32484 11.125 1.0415 10.8417 1.0415 10.5C1.0415 10.1583 1.32484 9.875 1.6665 9.875H2.49984C2.8415 9.875 3.12484 10.1583 3.12484 10.5C3.12484 10.8417 2.8415 11.125 2.49984 11.125Z" fill="#FFEC70"/>
</svg>
